<?xml version="1.0" encoding="UTF-8"?>
<svg width="16px" height="16px" viewBox="0 0 16 16" version="1.1" xmlns="http://www.w3.org/2000/svg" xmlns:xlink="http://www.w3.org/1999/xlink">
    <!-- Generator: Sketch 51.2 (57519) - http://www.bohemiancoding.com/sketch -->
    <title>Icons / Cross</title>
    <desc>Created with Sketch.</desc>
    <defs>
        <path d="M14,12.5857864 L7.70710678,6.29289322 C7.31658249,5.90236893 6.68341751,5.90236893 6.29289322,6.29289322 C5.90236893,6.68341751 5.90236893,7.31658249 6.29289322,7.70710678 L12.5857864,14 L6.29289322,20.2928932 C5.90236893,20.6834175 5.90236893,21.3165825 6.29289322,21.7071068 C6.68341751,22.0976311 7.31658249,22.0976311 7.70710678,21.7071068 L14,15.4142136 L20.2928932,21.7071068 C20.6834175,22.0976311 21.3165825,22.0976311 21.7071068,21.7071068 C22.0976311,21.3165825 22.0976311,20.6834175 21.7071068,20.2928932 L15.4142136,14 L21.7071068,7.70710678 C22.0976311,7.31658249 22.0976311,6.68341751 21.7071068,6.29289322 C21.3165825,5.90236893 20.6834175,5.90236893 20.2928932,6.29289322 L14,12.5857864 Z" id="path-1"></path>
    </defs>
    <g id="Page-1" stroke="none" stroke-width="1" fill="none" fill-rule="evenodd">
        <g id="Useful-Outline-Icons" transform="translate(-92.000000, -78.000000)">
            <g id="Icons-/-Cross" transform="translate(86.000000, 72.000000)">
                <mask id="mask-2" fill="white">
                    <use xlink:href="#path-1"></use>
                </mask>
                <use id="Icon" fill="#979797" fill-rule="nonzero" xlink:href="#path-1"></use>
                <g id="Colors-/-Black" mask="url(#mask-2)" fill="#ffffff" fill-rule="evenodd">
                    <rect id="Color" x="0" y="0" width="28" height="28"></rect>
                </g>
            </g>
        </g>
    </g>
</svg>