<?xml version="1.0" encoding="utf-8"?>
<!-- Generator: Adobe Illustrator 22.0.1, SVG Export Plug-In . SVG Version: 6.00 Build 0)  -->
<svg version="1.1" id="Layer_1" xmlns="http://www.w3.org/2000/svg" xmlns:xlink="http://www.w3.org/1999/xlink" x="0px" y="0px"
	 viewBox="0 0 221.2 230.1" style="enable-background:new 0 0 221.2 230.1;" xml:space="preserve">
<style type="text/css">
	.st0{fill:#3ACCCC;}
	.st1{fill:#FFFFFF;}
</style>
<circle class="st0" cx="109" cy="109" r="109"/>
<path class="st0" d="M165.6,197.7c23.9,41.3,55.6,31.3,55.6,31.3s-26.9-7.6-27.3-55.6L165.6,197.7z"/>
<g>
	<path class="st1" d="M165.4,50.9c-1.5-1.4-3-2.8-4.5-4.1C146.8,35.1,128.7,28,109,28c-19.7,0-37.8,7.1-51.9,18.8
		c-1.6,1.3-3.1,2.7-4.5,4.1C37.4,65.6,28,86.2,28,109c0,22.8,9.4,43.4,24.6,58.1c1.5,1.4,3,2.8,4.5,4.1c13.2,11.1,30.1,18,48.5,18.7
		v0.1h6.1v-0.1c18.7-0.6,35.8-7.5,49.2-18.8c1.6-1.3,3.1-2.7,4.5-4.1c15.2-14.7,24.6-35.3,24.6-58.1C190,86.2,180.6,65.6,165.4,50.9
		z M183.9,106.4h-34.4c-0.2-14.7-2.4-28.5-6.1-40.2c6.3-3,12.2-6.7,17.5-11.2C174.5,68.1,183.2,86.2,183.9,106.4z M111.6,34.3
		c7.4,1.4,14.8,8.6,20.6,20.1c1.3,2.6,2.5,5.4,3.6,8.3c-7.6,2.9-15.7,4.6-24.2,4.9V34.3z M105.6,34.5v33.2
		c-8.2-0.4-16.1-2.1-23.4-4.9c1.1-2.9,2.3-5.7,3.6-8.3C91.4,43.3,98.4,36.2,105.6,34.5z M105.6,73.7v32.6h-31
		c0.2-13.6,2.2-26.6,5.6-37.8C88.2,71.5,96.7,73.4,105.6,73.7z M105.6,112.4v31.9c-8.9,0.4-17.4,2.2-25.4,5.2
		c-3.4-11.1-5.3-23.7-5.6-37.1H105.6z M105.6,150.3v33.2c-7.2-1.7-14.2-8.8-19.8-20c-1.3-2.6-2.5-5.4-3.6-8.3
		C89.5,152.4,97.4,150.7,105.6,150.3z M111.6,183.7v-33.4c8.5,0.3,16.6,2,24.2,4.9c-1.1,2.9-2.3,5.7-3.6,8.3
		C126.4,175.1,119.1,182.3,111.6,183.7z M111.6,144.3v-31.9h31.8c-0.3,13.3-2.2,26-5.6,37.1C129.6,146.4,120.8,144.6,111.6,144.3z
		 M111.6,106.4V73.7c9.2-0.3,18-2.1,26.1-5.2c3.5,11.3,5.4,24.2,5.6,37.8H111.6z M156.3,50.9c-4.6,3.7-9.6,6.9-14.9,9.5
		c-3.8-10.2-8.8-18.5-14.6-24.2C137.7,38.9,147.8,44,156.3,50.9z M91.2,36.2c-5.8,5.7-10.8,14-14.6,24.2c-5.3-2.6-10.3-5.7-14.9-9.5
		C70.2,44,80.3,38.9,91.2,36.2z M57.1,55c5.3,4.4,11.2,8.2,17.5,11.2c-3.7,11.7-5.9,25.5-6.1,40.2H34.1C34.8,86.2,43.5,68.1,57.1,55
		z M34.1,112.4h34.4c0.3,14.4,2.5,27.9,6.1,39.4c-6.3,3-12.2,6.7-17.5,11.2C43.7,150.1,35,132.2,34.1,112.4z M76.6,157.6
		c3.8,10.2,8.8,18.5,14.6,24.2c-11-2.7-21-7.8-29.5-14.7C66.3,163.4,71.3,160.2,76.6,157.6z M126.8,181.8c5.8-5.7,10.8-14,14.6-24.2
		c5.3,2.6,10.3,5.7,14.9,9.5C147.8,174,137.7,179.1,126.8,181.8z M160.9,163c-5.3-4.4-11.2-8.2-17.5-11.2c3.6-11.5,5.8-25,6.1-39.4
		h34.4C183,132.2,174.3,150.1,160.9,163z"/>
</g>
</svg>
