<?xml version="1.0" encoding="UTF-8"?>
<svg width="64px" height="58px" viewBox="0 0 64 58" version="1.1" xmlns="http://www.w3.org/2000/svg" xmlns:xlink="http://www.w3.org/1999/xlink">
    <!-- Generator: Sketch 51.3 (57544) - http://www.bohemiancoding.com/sketch -->
    <title>119</title>
    <desc>Created with Sketch.</desc>
    <defs></defs>
    <g id="Page-1" stroke="none" stroke-width="1" fill="none" fill-rule="evenodd">
        <g id="Useful-Outline-Icons" transform="translate(-1372.000000, -1798.000000)" fill="#ffffff">
            <path d="M1420,1798 C1413.04,1798 1406.99,1801.53 1404,1806.67 C1401,1801.53 1394.95,1798 1388,1798 C1377.49,1798 1372,1807.06 1372,1816 C1372,1836.89 1401.7,1854.96 1402.97,1855.72 C1403.28,1855.9 1403.64,1856 1404,1856 C1404.35,1856 1404.71,1855.9 1405.02,1855.72 C1406.29,1854.96 1435.99,1836.89 1435.99,1816 C1435.99,1807.06 1430.5,1798 1420,1798 L1420,1798 Z M1404,1851.64 C1398.83,1848.3 1376,1832.62 1376,1816 C1376,1809.26 1379.75,1802 1388,1802 C1394.73,1802 1402,1806.59 1402,1814 C1402,1815.11 1402.89,1816 1404,1816 C1405.1,1816 1406,1815.11 1406,1814 C1406,1806.59 1413.26,1802 1420,1802 C1428.24,1802 1432,1809.26 1432,1816 C1432,1832.61 1409.16,1848.3 1404,1851.64 L1404,1851.64 Z" id="119"></path>
        </g>
    </g>
</svg>