<svg id="Layer_1" xmlns="http://www.w3.org/2000/svg" viewBox="0 0 476.1 95"><style>.st0{fill:#3acccc}.st1{fill:#abfff7}.st2{fill:#80fff3}.st3{fill:#30b2af}.st4{fill:#44e2de}.st5{fill:#fff}</style><path class="st0" d="M47.5 11.9L23.8 0 0 11.9v71.2L23.8 95l23.7-11.9 23.8-11.8V23.8z"/><path class="st1" d="M23.8 0v23.8L0 11.9z"/><path class="st2" d="M23.8 23.8L0 35.6V11.9z"/><path class="st1" d="M23.8 0l23.7 11.9-23.7 11.9z"/><path class="st2" d="M23.8 23.8v23.7L0 35.6z"/><path class="st2" d="M23.8 47.5L0 59.4V35.6z"/><path class="st3" d="M23.8 47.5l23.7-11.9-23.7-11.8zm23.7-11.9v23.8L23.8 47.5z"/><path class="st2" d="M47.5 11.9v23.7L23.8 23.8z"/><path class="st4" d="M23.8 47.5v23.8L0 59.4z"/><path class="st3" d="M23.8 71.3l23.7-11.9-23.7-11.9z"/><path class="st4" d="M23.8 71.3L0 83.1V59.4z"/><path class="st2" d="M47.5 11.9l23.8 11.9-23.8 11.8z"/><path class="st3" d="M47.5 59.4v23.7L23.8 71.3z"/><path class="st0" d="M47.5 83.1L23.8 95V71.3zM23.8 95L0 83.1l23.8-11.8z"/><path class="st4" d="M71.3 23.8v23.7L47.5 35.6z"/><path class="st4" d="M71.3 47.5L47.5 59.4V35.6z"/><path class="st0" d="M71.3 47.5v23.8L47.5 59.4z"/><path class="st0" d="M71.3 71.3L47.5 83.1V59.4z"/><path class="st5" d="M96.9 29.3l9.2-1.2-3 14c.6-.4 1.2-.7 1.7-.9s.9-.4 1.3-.5c.4-.1.8-.2 1.1-.2h1c1.1 0 2.1.2 3 .5s1.7 1 2.3 1.8c.6.8 1.1 1.9 1.5 3.3.4 1.4.5 3 .5 5 0 1.2-.1 2.6-.3 4.1s-.6 3-1.1 4.6-1.2 3.1-2.1 4.5c-.9 1.5-1.9 2.8-3.2 3.9-1.3 1.2-2.7 2.1-4.4 2.8s-3.6 1-5.9 1c-2.9 0-5-.7-6.5-2.1-1.5-1.4-2.2-3.3-2.2-5.9 0-.6 0-1.2.1-1.8l.3-1.8 6.7-31.1zm2 32.3c-.1.5-.2 1-.2 1.4 0 1.9 1.1 2.9 3.3 2.9.7 0 1.3-.2 1.9-.7.6-.5 1.2-1.1 1.7-1.8.5-.8 1-1.6 1.5-2.7.4-1 .8-2.1 1.1-3.2.3-1.1.6-2.3.7-3.4.2-1.2.3-2.3.3-3.4 0-.7-.1-1.5-.2-2.2-.1-.7-.3-1.4-.6-1.9-.3-.6-.6-1-1-1.3s-.9-.5-1.5-.5h-.8c-.3 0-.7.1-1.1.2-.4.1-.7.2-1 .3-.3.1-.6.3-.7.5l-3.4 15.8zm38.1-1.2c-.6 1.7-1.2 3.1-2 4.4-.7 1.2-1.5 2.3-2.2 3.1-.8.8-1.6 1.5-2.4 2.1-.8.5-1.6.9-2.4 1.2-.8.3-1.5.5-2.2.6-.7.1-1.3.2-1.9.2-.9 0-1.8-.1-2.6-.4-.8-.3-1.5-.7-2.1-1.3-.6-.6-1.1-1.4-1.4-2.3-.3-.9-.5-2.1-.5-3.4 0-.6 0-1.2.1-1.9s.2-1.4.4-2.2l4.2-19.9h8.9l-4.5 21.1c-.1.3-.2.7-.2 1v1c0 .9.2 1.5.6 1.8.4.3 1 .5 1.9.5.6 0 1.2-.1 1.8-.4.6-.3 1.1-.7 1.6-1.1.5-.5.9-1.1 1.3-1.7.4-.7.7-1.4.9-2.2h2.7zm-3.9-28.2c0 .7-.1 1.3-.4 1.9-.3.6-.6 1.1-1.1 1.5-.5.4-1 .8-1.6 1-.6.3-1.2.4-1.9.4s-1.3-.1-1.9-.4c-.6-.3-1.1-.6-1.6-1-.4-.4-.8-.9-1-1.5-.3-.6-.4-1.2-.4-1.9s.1-1.3.4-1.9.6-1.1 1-1.6 1-.8 1.6-1.1c.6-.3 1.2-.4 1.9-.4s1.3.1 1.9.4c.6.3 1.1.6 1.6 1.1.5.5.8 1 1.1 1.6s.4 1.2.4 1.9z"/><path class="st5" d="M153.6 60.4c-.6 1.7-1.2 3.1-2 4.4-.7 1.2-1.5 2.3-2.2 3.1-.8.8-1.6 1.5-2.4 2.1-.8.5-1.6.9-2.4 1.2-.8.3-1.5.5-2.2.6-.7.1-1.3.2-1.9.2-.9 0-1.8-.1-2.6-.4-.8-.3-1.5-.7-2.1-1.3-.6-.6-1.1-1.4-1.4-2.3-.3-.9-.5-2.1-.5-3.4 0-.6 0-1.2.1-1.9s.2-1.4.4-2.2l3.7-17.4H136l.5-2.5h2l1.9-8.6 9.2-1.2-2.1 9.8h3.7l-.5 2.5H147l-4 18.6c-.1.3-.2.7-.2 1v1c0 .9.2 1.5.6 1.8.4.3 1 .5 1.9.5.6 0 1.2-.1 1.8-.4.6-.3 1.1-.7 1.6-1.1.5-.5.9-1.1 1.3-1.7.4-.7.7-1.4.9-2.2h2.7z"/><path class="st5" d="M176.9 60.4c-.9 1.5-1.9 2.9-3 4.2-1.1 1.4-2.4 2.6-3.8 3.7s-3 1.9-4.7 2.6c-1.7.7-3.6 1-5.6 1-1.5 0-2.8-.2-4-.6-1.2-.4-2.2-1-3.1-1.7-.8-.8-1.5-1.8-2-3s-.7-2.7-.7-4.5c0-1.2.1-2.6.4-4.1.2-1.6.6-3.2 1.2-4.8.5-1.6 1.2-3.2 2.1-4.8s1.9-3 3.2-4.2c1.2-1.2 2.7-2.2 4.3-3 1.6-.8 3.5-1.1 5.6-1.1 1.4 0 2.5.2 3.4.5.9.3 1.6.8 2.1 1.3s.9 1.1 1.1 1.8c.2.7.3 1.4.3 2.1 0 .8-.1 1.4-.3 2-.2.6-.4 1-.7 1.4-.3.4-.7.7-1.1.8-.4.2-.8.3-1.3.3-.7 0-1.4-.2-2.2-.7.5-1.3.8-2.6.8-3.7 0-.8-.1-1.4-.4-1.8-.3-.5-.7-.7-1.3-.7-.6 0-1.3.3-1.9.9-.6.6-1.3 1.4-1.9 2.3-.6 1-1.1 2.1-1.7 3.3-.5 1.3-.9 2.6-1.3 3.9s-.7 2.7-.9 4c-.2 1.3-.3 2.6-.3 3.7s.1 1.9.3 2.6c.2.7.5 1.2.8 1.6.4.4.8.7 1.4.8.6.2 1.2.2 2 .2 1.2 0 2.3-.2 3.4-.5 1-.3 1.9-.8 2.8-1.3.9-.6 1.7-1.2 2.5-2s1.6-1.6 2.4-2.5h2.1z"/><path class="st5" d="M209.7 47.9c-1.2 1.3-2.8 2.4-4.7 3.2-1.9.9-4 1.5-6.3 1.9-.2 2.9-.8 5.5-1.7 7.8s-1.9 4.3-3.3 5.9c-1.3 1.6-2.8 2.9-4.5 3.7-1.7.9-3.5 1.3-5.4 1.3-1.4 0-2.8-.2-4-.5-1.2-.4-2.3-.9-3.2-1.7-.9-.8-1.6-1.8-2.1-3s-.7-2.8-.7-4.5c0-1.2.1-2.6.4-4.1.3-1.5.7-3.1 1.2-4.8.6-1.6 1.3-3.2 2.2-4.8.9-1.6 2-3 3.2-4.2 1.3-1.2 2.7-2.2 4.4-3 1.7-.8 3.5-1.1 5.7-1.1 5.3 0 8 3.3 8 9.9v.1c.1 0 .2.1.3.1h.4c.7 0 1.5-.1 2.3-.3.8-.2 1.7-.5 2.5-.8s1.7-.7 2.5-1.2 1.5-.9 2.2-1.4l.6 1.5zm-16.2 5.4c-.6-.2-1.1-.5-1.3-1-.2-.5-.3-1-.3-1.7 0-.9.2-1.6.5-2.1.4-.6.8-1 1.4-1.2 0-.7-.1-1.2-.2-1.7s-.2-.8-.4-1.1c-.2-.3-.4-.5-.7-.6-.3-.1-.6-.2-1-.2-.7 0-1.5.3-2.2.9s-1.3 1.3-2 2.3c-.6 1-1.2 2-1.7 3.3-.5 1.2-1 2.5-1.3 3.8-.4 1.3-.6 2.6-.8 3.8-.2 1.3-.3 2.4-.3 3.4s.1 1.9.2 2.5c.1.6.3 1.2.5 1.5.3.4.6.6 1 .8s.9.2 1.5.2c.7 0 1.5-.3 2.3-1 .8-.7 1.5-1.6 2.1-2.7.6-1.2 1.2-2.5 1.7-4.1.4-1.6.8-3.3 1-5.1z"/><path class="st5" d="M221.2 60.4c-.6 1.7-1.2 3.1-2 4.4-.7 1.2-1.5 2.3-2.2 3.1-.8.8-1.6 1.5-2.4 2.1-.8.5-1.6.9-2.4 1.2-.8.3-1.5.5-2.2.6-.7.1-1.3.2-1.9.2-.9 0-1.8-.1-2.6-.4-.8-.3-1.5-.7-2.1-1.3-.6-.6-1.1-1.4-1.4-2.3-.3-.9-.5-2.1-.5-3.4 0-.6 0-1.2.1-1.9s.2-1.4.4-2.2l4.2-19.9h8.9l-4.5 21.1c-.1.3-.2.7-.2 1v1c0 .9.2 1.5.6 1.8.4.3 1 .5 1.9.5.6 0 1.2-.1 1.8-.4.6-.3 1.1-.7 1.6-1.1.5-.5.9-1.1 1.3-1.7.4-.7.7-1.4.9-2.2h2.7zm-3.8-28.2c0 .7-.1 1.3-.4 1.9-.3.6-.6 1.1-1.1 1.5-.5.4-1 .8-1.6 1-.6.3-1.2.4-1.9.4s-1.3-.1-1.9-.4c-.6-.3-1.1-.6-1.6-1-.4-.4-.8-.9-1-1.5-.3-.6-.4-1.2-.4-1.9s.1-1.3.4-1.9.6-1.1 1-1.6 1-.8 1.6-1.1c.6-.3 1.2-.4 1.9-.4s1.3.1 1.9.4c.6.3 1.1.6 1.6 1.1.5.5.8 1 1.1 1.6s.4 1.2.4 1.9z"/><path class="st5" d="M216.3 71.5l6.6-31h8.9l-.7 3.2c.7-.7 1.3-1.3 2-1.8s1.3-.8 1.9-1c.6-.2 1.2-.4 1.8-.5.6-.1 1.1-.1 1.6-.1 1 0 1.9.1 2.8.4.8.3 1.6.7 2.2 1.2.6.6 1.1 1.3 1.4 2.2.3.9.5 2 .5 3.2 0 .8-.1 1.7-.2 2.7-.2 1-.3 1.9-.6 2.9-.2 1-.5 2-.7 3-.3 1-.5 1.9-.7 2.9-.2.9-.4 1.8-.6 2.5-.2.8-.2 1.5-.2 2 0 .8.2 1.4.5 1.9.4.5 1 .7 2 .7s1.7-.1 2.1-.4c-.1 1.1-.4 2.1-.8 2.9-.4.8-.9 1.5-1.5 2s-1.3.9-2.1 1.2-1.6.4-2.4.4c-1.2 0-2.2-.2-3-.6-.8-.4-1.5-.9-1.9-1.6-.5-.7-.8-1.4-1-2.2-.2-.8-.3-1.7-.3-2.6 0-1.1.1-2.3.4-3.7.3-1.4.6-2.8 1-4.3.3-1.5.7-2.9 1-4.3.3-1.4.4-2.6.4-3.5 0-2.1-.7-3.2-2.2-3.2-.6 0-1.1.2-1.6.5s-.9.7-1.3 1.2-.8 1.1-1.1 1.8c-.3.7-.6 1.4-.8 2.2l-4.2 19.9h-9.2zm79.2-11.1c-.6 1.7-1.2 3.1-1.9 4.3-.7 1.2-1.4 2.2-2.1 3-.7.8-1.5 1.5-2.3 2-.8.5-1.5.9-2.2 1.1s-1.4.4-2.1.5-1.3.1-1.8.1c-1.7 0-3.1-.5-4.2-1.3-1.1-.9-1.7-2.2-1.9-4-.5.7-1 1.4-1.6 2.1-.6.7-1.3 1.3-2 1.8-.8.5-1.6 1-2.5 1.3-.9.3-1.9.5-3 .5s-2.1-.2-3.1-.5-1.9-.9-2.6-1.7c-.8-.8-1.4-1.8-1.8-3.1s-.7-2.8-.7-4.7c0-1.4.1-2.9.4-4.5.3-1.6.7-3.2 1.3-4.9.6-1.6 1.3-3.2 2.2-4.7.9-1.5 1.9-2.8 3.1-3.9 1.2-1.1 2.5-2.1 4-2.7 1.5-.7 3.1-1 4.9-1 1.8 0 3 .3 3.8.9s1.2 1.4 1.2 2.2v.2l3-14.3 9.2-1.2-7.1 33.5c-.1.3-.2.7-.2 1 0 .3-.1.7-.1 1 0 .9.2 1.5.6 1.8.4.3 1.1.5 1.9.5.6 0 1.2-.1 1.7-.4.5-.3 1-.7 1.4-1.1.4-.5.8-1.1 1.1-1.7.3-.7.6-1.4.8-2.2h2.6zm-18.6 0l3-14.2c0-.2-.1-.4-.2-.6s-.2-.5-.4-.7c-.2-.2-.4-.4-.7-.6-.3-.2-.7-.2-1.2-.2-.9 0-1.7.3-2.5.8s-1.5 1.3-2.1 2.3c-.6.9-1.2 2-1.7 3.2-.5 1.2-.9 2.4-1.3 3.7-.4 1.3-.6 2.5-.8 3.7-.2 1.2-.3 2.3-.3 3.3 0 1.2.1 2.1.3 2.8.2.6.5 1.1.8 1.4.3.3.7.5 1 .6.4.1.7.1 1 .1.4 0 .9-.1 1.4-.3.5-.2 1-.5 1.5-1 .5-.4.9-1 1.3-1.6.4-.6.7-1.4.9-2.3v-.4z"/><path class="st5" d="M318.8 60.4c-.9 1.5-1.9 2.9-3 4.2-1.1 1.4-2.4 2.6-3.8 3.7s-3 1.9-4.7 2.6c-1.7.7-3.6 1-5.6 1-1.5 0-2.8-.2-4-.6-1.2-.4-2.2-1-3.1-1.7-.8-.8-1.5-1.8-2-3s-.7-2.7-.7-4.5c0-1.2.1-2.6.4-4.1.2-1.6.6-3.2 1.2-4.8.5-1.6 1.2-3.2 2.1-4.8.9-1.6 1.9-3 3.2-4.2 1.2-1.2 2.7-2.2 4.3-3 1.7-.8 3.5-1.1 5.7-1.1 1.4 0 2.5.2 3.4.5.9.3 1.6.8 2.1 1.3s.9 1.2 1.1 1.9c.2.7.3 1.5.3 2.2 0 1.8-.4 3.5-1.2 5-.8 1.5-1.8 2.9-3.2 4-1.3 1.2-2.8 2.1-4.6 2.8-1.7.7-3.5 1.1-5.4 1.2 0 .5-.1.9-.1 1.3v1.2c0 1.1.1 1.9.3 2.6.2.7.5 1.2.8 1.6.4.4.8.7 1.4.8.6.2 1.2.2 2 .2 1.2 0 2.3-.2 3.4-.5 1-.3 1.9-.8 2.8-1.3.9-.6 1.7-1.2 2.5-2s1.6-1.6 2.4-2.5h2zM301.9 56c1.2-.1 2.3-.4 3.4-1s2.1-1.3 2.9-2.3c.8-.9 1.5-2 2-3.2s.7-2.5.7-3.7c0-.8-.1-1.4-.3-1.8-.2-.5-.6-.7-1.2-.7-.8 0-1.6.4-2.3 1.1-.8.8-1.5 1.7-2.1 3s-1.3 2.6-1.8 4.1c-.6 1.4-1 3-1.3 4.5z"/><path class="st5" d="M343 60.4c-1.6 1.9-3.2 3.4-4.9 4.7-1.6 1.2-3.2 2.3-4.6 3.1-.6.7-1.4 1.3-2.2 1.7s-1.6.9-2.5 1.2-1.7.5-2.6.6c-.9.1-1.7.2-2.5.2-1.6 0-2.9-.2-4-.7-1.1-.5-2.1-1.1-2.8-1.8-.7-.8-1.3-1.6-1.7-2.5-.4-.9-.5-1.9-.5-2.8 0-.7.1-1.4.3-2 .2-.6.4-1.2.7-1.7.3-.5.7-.9 1-1.3.4-.4.8-.6 1.2-.8 1.7-3.1 3.2-6.2 4.4-9.2s2.3-6.1 3.2-9.2l9.2-1.2c.1 2.7.2 5 .3 7s.2 3.7.3 5.1c.1 1.4.2 2.7.3 3.7.1 1 .2 1.9.2 2.7.1.8.1 1.5.2 2.1s0 1.3 0 2v1.3c0 .4-.1.7-.2 1.1.9-.5 1.7-1 2.5-1.6.7-.5 1.4-1 2-1.6h2.7zm-25 2.2c0 1.5.3 2.5.9 3.3.6.7 1.6 1.1 2.9 1.1.7 0 1.4-.1 2-.3.6-.2 1.2-.5 1.7-1s.9-1 1.2-1.8c.3-.7.5-1.6.5-2.7v-1.5c0-.5-.1-1-.1-1.6 0-.6-.1-1.2-.2-1.9s-.2-1.5-.2-2.4c-.1-.9-.2-2-.3-3.2-.1-1.2-.2-2.6-.3-4.2-.6 2-1.4 4-2.2 5.9-.8 1.9-1.8 3.9-2.8 5.9.4.2.7.5 1 .8s.4.8.4 1.3c0 .4-.1.8-.2 1.1s-.3.7-.5 1-.5.5-.9.7c-.3.2-.7.3-1.1.3-.3 0-.7-.1-1-.2-.4 0-.6-.2-.8-.6z"/><path class="st5" d="M359.6 60.4c-.6 1.7-1.2 3.1-2 4.4-.7 1.2-1.5 2.3-2.2 3.1-.8.8-1.6 1.5-2.4 2.1-.8.5-1.6.9-2.4 1.2-.8.3-1.5.5-2.2.6-.7.1-1.3.2-1.9.2-.9 0-1.8-.1-2.6-.4-.8-.3-1.5-.7-2.1-1.3-.6-.6-1.1-1.4-1.4-2.3-.3-.9-.5-2.1-.5-3.4 0-.6 0-1.2.1-1.9s.2-1.4.4-2.2l4.2-19.9h8.9L349 61.7c-.1.3-.2.7-.2 1v1c0 .9.2 1.5.6 1.8.4.3 1 .5 1.9.5.6 0 1.2-.1 1.8-.4.6-.3 1.1-.7 1.6-1.1.5-.5.9-1.1 1.3-1.7.4-.7.7-1.4.9-2.2h2.7zm-3.8-28.2c0 .7-.1 1.3-.4 1.9-.3.6-.6 1.1-1.1 1.5-.5.4-1 .8-1.6 1-.6.3-1.2.4-1.9.4s-1.3-.1-1.9-.4c-.6-.3-1.1-.6-1.6-1-.4-.4-.8-.9-1-1.5-.3-.6-.4-1.2-.4-1.9s.1-1.3.4-1.9.6-1.1 1-1.6 1-.8 1.6-1.1c.6-.3 1.2-.4 1.9-.4s1.3.1 1.9.4c.6.3 1.1.6 1.6 1.1.5.5.8 1 1.1 1.6s.4 1.2.4 1.9z"/><path class="st5" d="M379.2 76.5c-.4 2.2-1.1 4-1.9 5.4-.8 1.4-1.8 2.4-2.8 3.2-1 .8-2.1 1.3-3.2 1.5-1.1.3-2.2.4-3.2.4s-1.8-.1-2.7-.4c-.8-.3-1.6-.6-2.2-1.1-.6-.5-1.1-1.1-1.5-1.9s-.6-1.6-.6-2.7c0-1.3.3-2.4.9-3.4.6-1 1.4-1.9 2.4-2.6 1-.7 2.1-1.4 3.3-1.9 1.2-.5 2.4-1 3.6-1.3l.8-3.3c-.9 1-2 1.8-3.2 2.4-1.2.6-2.6 1-4.3 1-1.1 0-2.1-.2-3.1-.5s-1.9-.9-2.6-1.7c-.8-.8-1.4-1.8-1.8-3.1s-.7-2.8-.7-4.7c0-1.4.1-2.9.4-4.5.3-1.6.7-3.2 1.3-4.9.6-1.6 1.3-3.2 2.2-4.7.9-1.5 1.9-2.8 3.1-3.9 1.2-1.1 2.5-2.1 4-2.7 1.5-.7 3.1-1 4.9-1 1.8 0 3 .3 3.8.9s1.2 1.4 1.2 2.2v.4l.7-3.2h8.9l-6.2 28.8c1-.3 1.8-.7 2.6-1.2s1.5-1 2.1-1.7 1.2-1.5 1.7-2.5 1-2.1 1.4-3.5h2.6c-.6 2.1-1.4 3.8-2.2 5.2-.9 1.4-1.8 2.5-2.7 3.4s-2 1.6-3 2c-1 .5-2 .8-3 1.1l-1 4.5zm-8.7-1.6c-.8.3-1.6.6-2.3 1s-1.4.7-1.9 1.2c-.6.4-1 .9-1.3 1.4-.3.5-.5 1.1-.5 1.7 0 .2 0 .5.1.7s.2.5.4.7.4.4.7.5.6.2.9.2c.6 0 1.3-.4 2-1.3s1.2-2.3 1.6-4.2l.3-1.9zm6.1-28.6c0-.2 0-.4-.1-.7-.1-.3-.2-.5-.4-.8s-.5-.4-.8-.6c-.3-.2-.7-.3-1.2-.3-.9 0-1.7.3-2.5.8s-1.5 1.3-2.1 2.3c-.6.9-1.2 2-1.7 3.2-.5 1.2-.9 2.4-1.3 3.7-.4 1.3-.6 2.5-.8 3.7-.2 1.2-.3 2.3-.3 3.3 0 1.2.1 2.1.3 2.8.2.6.5 1.1.8 1.4.3.3.7.5 1 .6.4.1.7.1 1 .1.4 0 .9-.1 1.4-.3.5-.2 1-.5 1.4-.9.5-.4.9-.9 1.3-1.5s.7-1.3.9-2.1l3.1-14.7z"/><path class="st5" d="M422.5 60.4c-.9 2.5-1.8 4.6-2.8 6.1-1 1.5-2 2.7-3 3.5-1 .8-2 1.3-3 1.6s-1.9.4-2.7.4c-1.4 0-2.5-.2-3.5-.6-.9-.4-1.7-.9-2.2-1.6-.6-.7-1-1.4-1.2-2.2-.3-.8-.4-1.7-.4-2.6 0-1.1.1-2.3.4-3.7.3-1.4.6-2.8 1-4.3.3-1.5.7-2.9 1-4.3.3-1.4.4-2.6.4-3.5 0-2.1-.7-3.2-2.2-3.2-.6 0-1.1.2-1.6.5s-.9.7-1.3 1.2-.8 1.1-1.1 1.8c-.3.7-.6 1.4-.8 2.2l-4.2 19.9h-8.9l6.6-31h8.9l-.7 3.2c.7-.7 1.3-1.3 2-1.8s1.3-.8 1.9-1c.6-.2 1.2-.4 1.8-.5.6-.1 1.1-.1 1.6-.1 1 0 1.9.1 2.8.4.8.3 1.6.7 2.2 1.2.6.6 1.1 1.3 1.4 2.2.3.9.5 2 .5 3.2 0 .8-.1 1.7-.2 2.7-.2 1-.3 1.9-.6 2.9-.2 1-.5 2-.7 3-.3 1-.5 1.9-.7 2.9-.2.9-.4 1.8-.6 2.5-.2.8-.2 1.5-.2 2 0 .8.2 1.4.5 1.9.4.5 1 .7 2 .7.7 0 1.3-.1 1.8-.4.5-.3 1-.6 1.4-1.1.4-.5.8-1.1 1.1-1.7.3-.7.7-1.4 1-2.2h2.3z"/><path class="st5" d="M445.8 60.4c-.9 1.5-1.9 2.9-3 4.2-1.1 1.4-2.4 2.6-3.8 3.7s-3 1.9-4.7 2.6c-1.7.7-3.6 1-5.6 1-1.5 0-2.8-.2-4-.6-1.2-.4-2.2-1-3.1-1.7-.8-.8-1.5-1.8-2-3s-.7-2.7-.7-4.5c0-1.2.1-2.6.4-4.1.2-1.6.6-3.2 1.2-4.8.5-1.6 1.2-3.2 2.1-4.8.9-1.6 1.9-3 3.2-4.2 1.2-1.2 2.7-2.2 4.3-3 1.7-.8 3.5-1.1 5.7-1.1 1.4 0 2.5.2 3.4.5.9.3 1.6.8 2.1 1.3s.9 1.2 1.1 1.9c.2.7.3 1.5.3 2.2 0 1.8-.4 3.5-1.2 5-.8 1.5-1.8 2.9-3.2 4-1.3 1.2-2.8 2.1-4.6 2.8-1.7.7-3.5 1.1-5.4 1.2 0 .5-.1.9-.1 1.3v1.2c0 1.1.1 1.9.3 2.6.2.7.5 1.2.8 1.6.4.4.8.7 1.4.8.6.2 1.2.2 2 .2 1.2 0 2.3-.2 3.4-.5 1-.3 1.9-.8 2.8-1.3.9-.6 1.7-1.2 2.5-2s1.6-1.6 2.4-2.5h2zM428.9 56c1.2-.1 2.3-.4 3.4-1s2.1-1.3 2.9-2.3c.8-.9 1.5-2 2-3.2s.7-2.5.7-3.7c0-.8-.1-1.4-.3-1.8-.2-.5-.6-.7-1.2-.7-.8 0-1.6.4-2.3 1.1-.8.8-1.5 1.7-2.1 3s-1.3 2.6-1.8 4.1c-.6 1.4-1 3-1.3 4.5z"/><path class="st5" d="M466.9 29.3l9.2-1.2-7.1 33.5c-.1.3-.2.7-.2 1 0 .3-.1.6-.1.9 0 .7.2 1.3.5 1.8.4.5 1 .7 2 .7.6 0 1 0 1.3-.1.3-.1.5-.2.7-.3-.1 1.1-.3 2.1-.7 2.9-.4.8-.9 1.5-1.6 2-.6.5-1.3.9-2.1 1.2-.8.3-1.6.4-2.4.4-.8 0-1.5-.1-2.2-.3-.7-.2-1.3-.5-1.9-.9-.6-.4-1-1-1.4-1.6-.4-.7-.7-1.4-.9-2.3-.5.7-1 1.3-1.6 1.9-.6.6-1.2 1.2-2 1.7-.7.5-1.5.9-2.4 1.2-.9.3-1.8.4-2.9.4-1.1 0-2.1-.2-3.1-.5s-1.9-.9-2.6-1.7c-.8-.8-1.4-1.8-1.8-3.1s-.7-2.8-.7-4.7c0-1.4.1-2.9.4-4.5.3-1.6.7-3.2 1.3-4.9.6-1.6 1.3-3.2 2.2-4.7.9-1.5 1.9-2.8 3.1-3.9 1.2-1.1 2.5-2.1 4-2.7 1.5-.7 3.1-1 4.9-1 1.8 0 3 .3 3.8.9s1.2 1.4 1.2 2.2v.2l3.1-14.5zm-6.6 31.1l3-14.2c0-.2-.1-.4-.2-.6s-.2-.5-.4-.7c-.2-.2-.4-.4-.7-.6-.3-.2-.7-.2-1.2-.2-.9 0-1.7.3-2.5.8s-1.5 1.3-2.1 2.3c-.6.9-1.2 2-1.7 3.2-.5 1.2-.9 2.4-1.3 3.7-.4 1.3-.6 2.5-.8 3.7-.2 1.2-.3 2.3-.3 3.3 0 1.2.1 2.1.3 2.8.2.6.5 1.1.8 1.4.3.3.7.5 1 .6.4.1.7.1 1 .1.4 0 .9-.1 1.3-.3.5-.2.9-.5 1.4-.8.4-.4.9-.8 1.2-1.4.4-.6.7-1.2.9-2l.3-1.1z"/></svg>