<?xml version="1.0" encoding="UTF-8"?>
<svg width="36px" height="36px" viewBox="0 0 36 36" version="1.1" xmlns="http://www.w3.org/2000/svg" xmlns:xlink="http://www.w3.org/1999/xlink">
    <!-- Generator: Sketch 51.2 (57519) - http://www.bohemiancoding.com/sketch -->
    <title>Icons / qr-code-scan</title>
    <desc>Created with Sketch.</desc>
    <defs>
        <path d="M28,0 L20,0 L20,2 L28,2 C29.104,2 30,2.896 30,4 L30,12 L32,12 L32,4 C32,1.791 30.209,0 28,0 L28,0 Z M30,28 C30,29.104 29.104,30 28,30 L20,30 L20,32 L28,32 C30.209,32 32,30.209 32,28 L32,20 L30,20 L30,28 L30,28 Z M2,28 L2,20 L0,20 L0,28 C0,30.209 1.791,32 4,32 L12,32 L12,30 L4,30 C2.896,30 2,29.104 2,28 L2,28 Z M0,4 L0,12 L2,12 L2,4 C2,2.896 2.896,2 4,2 L12,2 L12,0 L4,0 C1.791,0 0,1.791 0,4 L0,4 Z" id="path-1"></path>
    </defs>
    <g id="Icons-/-qr-code-scan" stroke="none" stroke-width="1" fill="none" fill-rule="evenodd">
        <rect id="_bound" x="0" y="0" width="36" height="36"></rect>
        <g id="Icons-/-qr-code" transform="translate(7.000000, 7.000000)" fill="#3acccc">
            <g id="qr-code">
                <path d="M14,12 L20,12 C21.1045695,12 22,12.8954305 22,14 L22,20 C22,21.1045695 21.1045695,22 20,22 L14,22 C12.8954305,22 12,21.1045695 12,20 L12,14 C12,12.8954305 12.8954305,12 14,12 Z M14,14 L14,20 L20,20 L20,14 L14,14 Z" id="Combined-Shape"></path>
                <path d="M14,0 L20,0 C21.1045695,-2.02906125e-16 22,0.8954305 22,2 L22,8 C22,9.1045695 21.1045695,10 20,10 L14,10 C12.8954305,10 12,9.1045695 12,8 L12,2 C12,0.8954305 12.8954305,2.02906125e-16 14,0 Z M14,2 L14,8 L20,8 L20,2 L14,2 Z" id="Combined-Shape-Copy"></path>
                <path d="M2,0 L8,0 C9.1045695,-2.02906125e-16 10,0.8954305 10,2 L10,8 C10,9.1045695 9.1045695,10 8,10 L2,10 C0.8954305,10 1.3527075e-16,9.1045695 0,8 L0,2 C-1.3527075e-16,0.8954305 0.8954305,2.02906125e-16 2,0 Z M2,2 L2,8 L8,8 L8,2 L2,2 Z" id="Combined-Shape-Copy-2"></path>
                <path d="M2,12 L8,12 C9.1045695,12 10,12.8954305 10,14 L10,20 C10,21.1045695 9.1045695,22 8,22 L2,22 C0.8954305,22 1.3527075e-16,21.1045695 0,20 L0,14 C-1.3527075e-16,12.8954305 0.8954305,12 2,12 Z M2,14 L2,20 L8,20 L8,14 L2,14 Z" id="Combined-Shape-Copy-3"></path>
                <rect id="Rectangle-3" x="3" y="3" width="4" height="4" rx="1"></rect>
                <rect id="Rectangle-3-Copy" x="3" y="15" width="4" height="4" rx="1"></rect>
                <rect id="Rectangle-3-Copy-2" x="15" y="15" width="4" height="4" rx="1"></rect>
                <rect id="Rectangle-3-Copy-3" x="15" y="3" width="4" height="4" rx="1"></rect>
            </g>
        </g>
        <g id="scan">
            <rect id="_bound" x="0" y="0" width="36" height="36"></rect>
            <g id="color-/-dark-gray" stroke-width="1" fill-rule="evenodd" transform="translate(2.000000, 2.000000)">
                <mask id="mask-2" fill="white">
                    <use xlink:href="#path-1"></use>
                </mask>
                <use id="Mask" fill="#FFFFFE" xlink:href="#path-1"></use>
                <g mask="url(#mask-2)" fill="#3acccc" id="Rectangle">
                    <rect x="0" y="0" width="36" height="36"></rect>
                </g>
            </g>
        </g>
    </g>
</svg>